<svg xmlns="http://www.w3.org/2000/svg" xmlns:xlink="http://www.w3.org/1999/xlink" width="500" zoomAndPan="magnify" viewBox="0 0 375 374.999991" height="500" preserveAspectRatio="xMidYMid meet" version="1.0"><defs><clipPath id="91f2936ce0"><path d="M 19 161 L 201 161 L 201 344 L 19 344 Z M 19 161 " clip-rule="nonzero"/></clipPath><clipPath id="e1824261b2"><path d="M 46.46875 154.46875 L 208.527344 316.527344 L 173.839844 351.214844 L 11.78125 189.15625 Z M 46.46875 154.46875 " clip-rule="nonzero"/></clipPath><clipPath id="5af99da281"><path d="M 59.199219 167.195312 L 195.703125 303.699219 C 202.730469 310.730469 202.730469 322.125 195.703125 329.15625 L 186.472656 338.386719 C 179.441406 345.417969 168.042969 345.417969 161.015625 338.386719 L 24.511719 201.882812 C 17.480469 194.855469 17.480469 183.457031 24.511719 176.425781 L 33.742188 167.195312 C 40.773438 160.164062 52.167969 160.164062 59.199219 167.195312 Z M 59.199219 167.195312 " clip-rule="nonzero"/></clipPath><clipPath id="87ded2f177"><path d="M 19 31 L 201 31 L 201 214 L 19 214 Z M 19 31 " clip-rule="nonzero"/></clipPath><clipPath id="3d5a4e4f7a"><path d="M 11.785156 185.84375 L 173.839844 23.785156 L 208.53125 58.472656 L 46.472656 220.53125 Z M 11.785156 185.84375 " clip-rule="nonzero"/></clipPath><clipPath id="08e7da931c"><path d="M 24.511719 173.117188 L 161.015625 36.613281 C 168.046875 29.582031 179.441406 29.582031 186.472656 36.613281 L 195.703125 45.84375 C 202.734375 52.871094 202.734375 64.269531 195.703125 71.300781 L 59.199219 207.804688 C 52.171875 214.832031 40.773438 214.832031 33.742188 207.804688 L 24.511719 198.570312 C 17.480469 191.542969 17.480469 180.144531 24.511719 173.117188 Z M 24.511719 173.117188 " clip-rule="nonzero"/></clipPath><clipPath id="512de6ece0"><path d="M 117 161 L 300 161 L 300 344 L 117 344 Z M 117 161 " clip-rule="nonzero"/></clipPath><clipPath id="d99ab78744"><path d="M 144.792969 154.46875 L 306.851562 316.527344 L 272.164062 351.214844 L 110.105469 189.15625 Z M 144.792969 154.46875 " clip-rule="nonzero"/></clipPath><clipPath id="0606d5e895"><path d="M 157.523438 167.195312 L 294.027344 303.699219 C 301.054688 310.730469 301.054688 322.125 294.027344 329.15625 L 284.796875 338.386719 C 277.765625 345.417969 266.367188 345.417969 259.339844 338.386719 L 122.835938 201.882812 C 115.804688 194.855469 115.804688 183.457031 122.835938 176.425781 L 132.066406 167.195312 C 139.097656 160.164062 150.492188 160.164062 157.523438 167.195312 Z M 157.523438 167.195312 " clip-rule="nonzero"/></clipPath><clipPath id="04786ee231"><path d="M 117 31 L 300 31 L 300 214 L 117 214 Z M 117 31 " clip-rule="nonzero"/></clipPath><clipPath id="5142f37ca3"><path d="M 110.109375 185.84375 L 272.164062 23.785156 L 306.855469 58.472656 L 144.796875 220.53125 Z M 110.109375 185.84375 " clip-rule="nonzero"/></clipPath><clipPath id="a69a887f60"><path d="M 122.835938 173.117188 L 259.339844 36.613281 C 266.371094 29.582031 277.765625 29.582031 284.796875 36.613281 L 294.027344 45.84375 C 301.058594 52.871094 301.058594 64.269531 294.027344 71.300781 L 157.523438 207.804688 C 150.496094 214.832031 139.097656 214.832031 132.066406 207.804688 L 122.835938 198.570312 C 115.804688 191.542969 115.804688 180.144531 122.835938 173.117188 Z M 122.835938 173.117188 " clip-rule="nonzero"/></clipPath><clipPath id="24fa0ad70c"><path d="M 216 38 L 298 38 L 298 217 L 216 217 Z M 216 38 " clip-rule="nonzero"/></clipPath><clipPath id="eff5bd5613"><path d="M 301.246094 45.566406 L 260.722656 220.683594 L 212.929688 209.625 L 253.453125 34.507812 Z M 301.246094 45.566406 " clip-rule="nonzero"/></clipPath><clipPath id="ca6ce98527"><path d="M 297.1875 63.101562 L 264.8125 202.996094 C 262.574219 212.683594 252.90625 218.714844 243.21875 216.476562 L 230.5 213.53125 C 220.8125 211.289062 214.78125 201.621094 217.019531 191.9375 L 249.394531 52.042969 C 251.636719 42.359375 261.304688 36.324219 270.988281 38.5625 L 283.710938 41.507812 C 293.394531 43.75 299.429688 53.417969 297.1875 63.101562 Z M 297.1875 63.101562 " clip-rule="nonzero"/></clipPath><clipPath id="8086a26f6d"><path d="M 223.035156 167.085938 L 363.304688 167.085938 L 363.304688 216.140625 L 223.035156 216.140625 Z M 223.035156 167.085938 " clip-rule="nonzero"/></clipPath><clipPath id="68cfcda0d8"><path d="M 241.035156 167.085938 L 345.214844 167.085938 C 355.15625 167.085938 363.214844 175.144531 363.214844 185.085938 L 363.214844 198.140625 C 363.214844 208.082031 355.15625 216.140625 345.214844 216.140625 L 241.035156 216.140625 C 231.09375 216.140625 223.035156 208.082031 223.035156 198.140625 L 223.035156 185.085938 C 223.035156 175.144531 231.09375 167.085938 241.035156 167.085938 Z M 241.035156 167.085938 " clip-rule="nonzero"/></clipPath></defs><g clip-path="url(#91f2936ce0)"><g clip-path="url(#e1824261b2)"><g clip-path="url(#5af99da281)"><path fill="#6775f1" d="M 46.46875 154.46875 L 208.394531 316.390625 L 173.703125 351.078125 L 11.78125 189.15625 Z M 46.46875 154.46875 " fill-opacity="1" fill-rule="nonzero"/></g></g></g><g clip-path="url(#87ded2f177)"><g clip-path="url(#3d5a4e4f7a)"><g clip-path="url(#08e7da931c)"><path fill="#6775f1" d="M 11.785156 185.84375 L 173.707031 23.921875 L 208.394531 58.609375 L 46.472656 220.53125 Z M 11.785156 185.84375 " fill-opacity="1" fill-rule="nonzero"/></g></g></g><g clip-path="url(#512de6ece0)"><g clip-path="url(#d99ab78744)"><g clip-path="url(#0606d5e895)"><path fill="#7a86f1" d="M 144.792969 154.46875 L 306.71875 316.390625 L 272.027344 351.078125 L 110.105469 189.15625 Z M 144.792969 154.46875 " fill-opacity="1" fill-rule="nonzero"/></g></g></g><g clip-path="url(#04786ee231)"><g clip-path="url(#5142f37ca3)"><g clip-path="url(#a69a887f60)"><path fill="#7a86f1" d="M 110.109375 185.84375 L 272.03125 23.921875 L 306.71875 58.609375 L 144.796875 220.53125 Z M 110.109375 185.84375 " fill-opacity="1" fill-rule="nonzero"/></g></g></g><g clip-path="url(#24fa0ad70c)"><g clip-path="url(#eff5bd5613)"><g clip-path="url(#ca6ce98527)"><path fill="#7a86f1" d="M 301.246094 45.566406 L 260.765625 220.496094 L 212.972656 209.4375 L 253.453125 34.507812 Z M 301.246094 45.566406 " fill-opacity="1" fill-rule="nonzero"/></g></g></g><g clip-path="url(#8086a26f6d)"><g clip-path="url(#68cfcda0d8)"><path fill="#7a86f1" d="M 223.035156 167.085938 L 363.304688 167.085938 L 363.304688 216.140625 L 223.035156 216.140625 Z M 223.035156 167.085938 " fill-opacity="1" fill-rule="nonzero"/></g></g></svg>